<svg id="Layer_1" data-name="Layer 1" xmlns="http://www.w3.org/2000/svg" viewBox="0 0 440 440"><defs><style>.cls-1{fill:#1e59c1;}</style></defs><title>cStroke</title><path class="cls-1" d="M220,0h-4.44q-3.41.07-6.79.24h-1.9l-.86,0,.31,5C210.84,5.14,215.45,5,220,5V0ZM197,1.18q-4.14.44-8.24,1h0l-.08,0h-.09l-.24,0h-.2l-.13,0h-.7l-.1,0H187l-.31,0h0l-.1,0h0c-1.15.17-2.3.36-3.44.55L184,8c4.47-.75,9-1.37,13.55-1.84l-.51-5ZM174.33,4.75c-1.34.28-2.68.58-4,.88h0l-.32.08h0l-.08,0h0l-.22,0h-.12l-.06,0h0l-.09,0h-.29L169,6h0l-.06,0h-.14l-.09,0h0l-.1,0h0l-.07,0h0l-.09,0h0l-.11,0h0l-.1,0h0l-.1,0h0l-.32.07h0q-3.51.86-7,1.83l1.34,4.81c4.38-1.22,8.85-2.31,13.29-3.25l-1-4.89Zm-22.22,5.92-3.12,1h0l-.3.11h0l-.1,0h0l-.2.07h0l-.09,0h0l-.2.07h0l-.08,0h0l-.09,0h0l-.1,0h0l-.08,0h0l-.07,0h0l-.1,0h0l-.08,0h0l-.07,0h0l-.08,0h0l-.08,0h0l-.07,0h0l-.07,0h0l-.08,0h0l-.06,0h0l-.05,0,0,0-.09,0h0l-.06,0,0,0h-.05l0,0-.07,0-.05,0-.06,0,0,0h-.05l0,0-.05,0h0l-.08,0,0,0-.06,0h0l-.05,0,0,0-.08,0,0,0-.05,0,0,0h-.05l0,0-.06,0-.06,0-.06,0,0,0-.05,0h0l-.05,0h0l-.08,0h0l-.06,0h0l-.07,0h0l-.09,0h0l-.08,0,0,0-.06,0h0l-.08,0h0l-.09,0h0l-.06,0,0,0-.07,0h0l-.09,0h0l-.07,0h0l-.08,0h0l-.09,0h0l-.09,0h0l-.08,0h0l-.19.07h0l-.09,0h0l-.2.08h0l-.1,0h0l-.3.11h0l-3.26,1.26,1.85,4.65c4.22-1.67,8.55-3.23,12.87-4.63l-1.55-4.76ZM130.65,18.9q-1.62.72-3.24,1.47h0l-.29.14h0l-.07,0h0l-.22.1h0l-.07,0h0l-.21.1h0l-.07,0h0l-.2.09h0l-.06,0h0l-.2.1h0l-.06,0,0,0-.06,0h0l-.12.06h0l0,0,0,0-.06,0h0l-.11.05h0l-.06,0h0l0,0h0l-.13.06h0l-.06,0,0,0,0,0,0,0,0,0h0l-.11.05,0,0,0,0,0,0,0,0h0l-.11,0h0l0,0h0l-.06,0h0L124,22l0,0L124,22l0,0-.05,0h0l-.11.05h0l-.06,0h0l0,0h0l-.13.07h0l0,0,0,0-.06,0h0l-.19.09h0l-.06,0h0l-.21.1h0l-.07,0h0l-.06,0h0l-.15.08h0l-.07,0h0l-.07,0h0l-.21.11h0L122,23h0l-.22.11h0l-.08,0h0c-1.22.61-2.44,1.23-3.65,1.87l2.32,4.43c4-2.11,8.16-4.11,12.31-6l-2-4.57ZM110.16,29.34c-2.27,1.31-4.52,2.67-6.75,4.06h0l-.27.17h0l-.27.17h0l-.09.06h0l-.09,0h0l-.07.05h0l-.08,0h0l-.09.06h0l-.08.05,0,0-.07,0h0l-.08.06h0l-.07.05,0,0-.06,0,0,0-.07,0,0,0-.06,0,0,0,0,0,0,0,0,0-.06,0,0,0,0,0,0,0,0,0,0,0-.17.11h0l0,0h0l-.2.12h0c-.87.56-1.73,1.13-2.59,1.7L101,40.88c3.78-2.52,7.69-4.94,11.62-7.21l-2.5-4.33ZM90.88,41.86q-2.47,1.8-4.91,3.66h0l-.25.19h0l-.07.06h0l-.08.06h0l-.08.06,0,0,0,0,0,0-.06,0,0,0-.05,0,0,0,0,0,0,0,0,0L85,46.3h0l0,0,0,0,0,0h0l-.19.14h0c-1.62,1.27-3.23,2.55-4.81,3.87L83,54.29c3.5-2.9,7.13-5.72,10.81-8.39l-2.94-4ZM73,56.31l-.92.84h0l-.23.22h0l-.18.16h0l-.05.05,0,0-.16.14,0,0,0,0,0,0,0,0,0,0-.08.08,0,0,0,0,0,0,0,0,0,0-.05,0,0,0,0,0,0,0,0,0,0,0,0,0-.06,0,0,0-.06,0,0,0-.06.06h0l-.07.07,0,0-.06.05,0,0-.15.14h0L70.1,59h0l-.24.21h0q-3.56,3.31-7,6.79l3.57,3.5C69.64,66.25,73,63.07,76.35,60L73,56.31ZM56.73,72.55l-.62.69h0l-.05.06h0l-.1.11h0l0,0,0,0,0,0,0,0,0,.06,0,.05,0,0,0,0,0,0,0,0,0,0-.06.06,0,0,0,0,0,0-.06.07h0l-.07.07h0l-.06.07h0l-.07.08h0l-.07.08h0L55,74.5h0q-3.75,4.26-7.3,8.71l3.92,3.12c2.82-3.56,5.8-7.07,8.85-10.44l-3.71-3.35ZM42.22,90.38c-.42.58-.83,1.14-1.24,1.72h0l-.18.26h0l0,.06h0l-.09.12h0l0,0,0,0,0,0v0l-.07.1,0,0,0,.05,0,0,0,0,0,0-.06.08,0,0,0,0,0,0,0,0,0,0,0,.06,0,0,0,0,0,0,0,0,0,0,0,0-.05.07,0,0,0,0,0,0,0,0,0,0,0,.07,0,0,0,.05,0,0,0,.06v0l-.06.08v0l0,.06v0l-.05.06v0l-.06.08v0l0,.07v0l0,.06v0l-.11.17,0,0,0,.06,0,0-.11.17h0l0,.08h0l-.12.17h0l-.05.08h0l-.12.17h0l-.05.08h0l-.12.18h0l-.06.08h0l-.06.09h0l-.12.17h0l-.18.27h0l-.18.27h0l-.37.54s0,0,0,0l-.24.37h0c-.93,1.39-1.85,2.8-2.75,4.21l4.21,2.69c2.44-3.83,5-7.63,7.72-11.3l-4-3ZM29.65,109.63q-2.66,4.56-5.09,9.25h0l0,.08h0l-.11.21h0l0,.07v0l-.1.18,0,0,0,0,0,0,0,.05,0,.07,0,0,0,0,0,0,0,.06v0L24,120v0l0,.07,0,0,0,.07v0l-.1.18h0l-.05.09h0c-.25.48-.49,1-.74,1.46l4.48,2.23c2-4.06,4.21-8.11,6.49-12l-4.32-2.51Zm-10.5,20.46Q16.3,136.45,13.84,143l4.68,1.75c1.59-4.25,3.34-8.51,5.2-12.65l-4.57-2Zm-8.29,21.44Q8.7,158.16,6.94,165l4.84,1.25c1.13-4.39,2.42-8.81,3.84-13.13l-4.76-1.55Zm-6,22.19h0l0,.11h0l0,.09v0l0,.08v0l0,.09h0l0,.1v0l0,.07v0l0,.06v.41l0,.2v.21l0,.22v.11l-.06.32h0Q3.7,179.45,3.1,183h0l0,.08h0l0,.25H3v.18l0,.13v.8h0l0,.1v0l0,.09h0c-.15.94-.3,1.88-.44,2.82l5,.73c.67-4.49,1.48-9,2.43-13.46l-4.88-1.05ZM1.25,196.43C.86,200,.57,203.65.36,207.3v.22h0v.8h0l-.09,2,5,.22c.2-4.55.54-9.14,1-13.65l-5-.52ZM0,219.38v.26H0v.17H0v.08H0v1.25H0v2.21H0v1.67h0v.53h0v.25h0v.26h0c0,.12,0,.22,0,.34h0v.08h0v.08h0c0,.14,0,.28,0,.43h0v.08h0v.09h0c0,.15,0,.29,0,.44h0v.09h0c.06,1.87.15,3.72.26,5.58l5-.3C5.13,228.75,5,224.35,5,220v-.6l-5,0Zm6.1,22.47-5,.5.18,1.7h0c0,.15,0,.29.05.43h0v.08h0a1.94,1.94,0,0,1,0,.24h0V245h0l0,.24v.18h0l0,.24v.11l0,.32v.12l0,.23h0v.19l0,.23v.2l0,.22v.21l0,.23v.18h0l0,.24v.11l0,.24h0v.18l0,.24h0v.17h0l0,.25H2v.17H2l0,.24V250H2l0,.24v.18h0l0,.15v.27h0l0,.14v.22l0,.12v.79h0v.22l0,.09h0l0,.21h0v.11c.17,1.15.35,2.29.54,3.44l4.93-.82c-.74-4.48-1.35-9-1.8-13.56Zm3.42,22.2-4.9,1c.57,2.73,1.19,5.43,1.85,8.12h0l0,.1h0c0,.1,0,.2.08.31h0l0,.09h0l0,.21h0l0,.08v0l0,.08v0l0,.1h0l0,.08v0l0,.07v.13l0,.09v0l0,.05v.15l0,.08,0,0v.13l0,.06v0l.06.23h0v.07h0c.27,1.05.55,2.08.83,3.12l4.82-1.33c-1.21-4.38-2.29-8.85-3.21-13.3Zm5.73,21.72-4.77,1.53h0l0,.09h0l.06.2h0l0,.09v0l0,.09h0l0,.11h0l0,.09v0l0,.08v0l.06.2v0l0,.07v0l0,.08v0l0,.09v0l0,.08v0l0,.07v0l0,.09v0l0,.07v0l0,.06v0l0,.08v0l0,.07v0l0,0,0,.05v.05l0,.05,0,.07v.05l0,0v.05l0,0v.05l0,.06,0,.07v0l0,.05v0l0,.06v0l0,.11v0l0,0v0l0,.05v0l.07.21v0l0,.06v0l.08.23h0l0,.07v0l.1.3h0c0,.11.07.21.1.31h0q1.5,4.37,3.19,8.64l4.65-1.83c-1.66-4.22-3.21-8.56-4.59-12.88Zm8,21-4.58,2q2.84,6.42,6.06,12.62l4.44-2.31c-2.1-4-4.09-8.18-5.92-12.33Zm10.14,20.05L29,329.3q3.49,6.09,7.35,11.92l4.17-2.76c-2.51-3.79-4.92-7.71-7.18-11.64Zm12.18,18.87-4,2.93,1.12,1.55h0l.19.26h0l0,.06h0l.1.12h0l0,.06v0l0,.05v0l.08.1v0l0,.05,0,0,0,0,0,0,0,.05,0,.06,0,0,0,0,0,0,0,0,0,0,.05.08,0,0,0,.06,0,0,0,.07h0l.06.08v0l0,.06,0,0,0,.07h0L44,352h0l.06.08h0l.06.08h0l.13.17h0q2.82,3.75,5.81,7.39l3.86-3.18c-2.88-3.51-5.69-7.15-8.35-10.84Zm14.08,17.52-3.73,3.33c.83.92,1.66,1.84,2.5,2.75h0l.14.16h0l.07.07v0l.06.06h0l.06.08h0l.05.06,0,0,0,0,0,0,.07.07,0,0,0,.05,0,0,0,0,0,0,0,0,.07.07,0,0,0,0,0,0,0,.05h0l.1.1h0l0,0v0l.22.23h0c1.88,2,3.81,4,5.77,5.9l3.51-3.56c-3.24-3.18-6.41-6.52-9.44-9.9Zm15.82,16-3.36,3.7c1.18,1.07,2.36,2.12,3.56,3.17h0l.25.21h0l0,.05h0l.17.15h0l0,.05h0l.16.14,0,0,0,0,0,0,0,0h0l.09.09,0,0,0,0,0,0,0,0,0,0,.07.06,0,0,0,0,0,0,0,0,.06.05,0,0,0,0,0,0,0,0,0,0,.06.05,0,0,0,0,0,0,0,0,0,0,.07.05,0,0,.06.05,0,0,0,.05,0,0,.07.06h0l.07.06,0,0L78,388l0,0,.07.06h0l.07.07,0,0,.06,0,0,0,.07.06h0l.07.07h0l.06,0,0,0,.07.06h0l.07.06,0,0,0,0,0,0,.07.06h0l.08.06h0l.07.06h0l.08.06h0l.08.06h0l.07.06h0l.06.06h0l.07.06h0l.06.06h0l.07.06h0l.08.06h0l.06.06h0l.07.06h0l.08.06h0l.07.06h0l.06.06h0l.08.06h0l.07.06h0l.06.05,0,0,.08.06h0l.07.05,0,0,.06,0,0,0,.08.06h0l.06.05,0,0,0,.05,0,0,.07.06h0l.06.05,0,0,0,0,0,0,.07.06,0,0,0,0,0,0,0,0,0,0,0,0,0,0,.05,0,0,0,0,0,0,0,0,0,.06,0,0,0,0,0,0,0,0,0,0,0,.07.06,0,0,0,0,0,0,0,0,0,0,.09.07,0,0,0,0,0,0,0,0h0l.17.14h0l.05,0h0l0,0,3.13-3.9c-3.55-2.84-7.05-5.82-10.42-8.88Zm17.4,14.23-3,4c1.4,1,2.83,2.05,4.26,3.05h0l.09.06h0l.18.12h0l.08.06h0l.17.12h0l.08,0h0l.07.06h0L95,401h0l.07,0,0,0,.06,0h0l.08.06h0l.06,0,0,0,.06,0,0,0,.07,0,0,0,0,0,0,0,0,0,0,0,.06,0,0,0,0,0,0,0,0,0,0,0,0,0,.08.06,0,0,0,0,0,0,0,0,0,0,.11.07h0l.05,0h0l.05,0h0l.12.09h0l.06,0,0,0,.06,0h0l.19.13h0l.27.18h0c1.37.93,2.76,1.84,4.15,2.73l2.7-4.21c-3.82-2.45-7.61-5.05-11.27-7.74Zm18.77,12.34L109.1,410c1,.57,2,1.13,2.93,1.69h0l.08,0h0l.17.1h0l.06,0h0l.07,0h0l.09.05h0l.05,0,0,0,0,0,0,0,.08,0,.05,0,0,0,.05,0,0,0,.18.1h0l.06,0h0l.2.11h0l.07,0h0l.28.16h0l.28.16h0l2.11,1.15h0l.28.15h0l.07,0h0l.2.1,0,0,.06,0h0l.06,0h0l.12.07h0l0,0,0,0,0,0,0,0,.07,0,0,0,0,0,0,0h0l.06,0h0l.08,0,0,0,.07,0,0,0,.08,0h0l.09,0h0l.08,0h0l.28.14h0c1,.51,1.94,1,2.92,1.5l2.24-4.47c-4-2-8.1-4.23-12-6.52Zm20,10.31-2.06,4.55.15.07h0l.05,0h0l.05,0,0,0,.06,0,.06,0,0,0,.06,0,0,0,.08,0h0l.09,0h0l.08,0h0q5.17,2.31,10.49,4.36h0l.08,0h0l.19.08h0l.06,0h0l.06,0h0l.09,0,0,0,0,0h0l0,0,.06,0h0l.12,0h0l.07,0h0l.46.18,1.76-4.68c-4.25-1.6-8.5-3.36-12.64-5.23Zm20.93,8.16-1.57,4.74h0l.1,0h0l.09,0h0l.08,0h0l.2.06h0l.08,0h0l.1,0h0l.1,0h0l.09,0h0l.08,0h0l.2.07h0l.08,0h0l.09,0h0l.1,0h0l.08,0h0l.09,0h0l.2.06h0l.07,0h0l.19.06h0l.08,0h0l.08,0h0l.1,0h0l.08,0h0l.07,0h0l.08,0h0l.1,0h0l.07,0h0l.07,0h0l.09,0h0l.06,0h0l.06,0h0l.09,0h0l.09,0h0l.06,0h0l.07,0h0l.09,0h.09l0,0h.06l0,0,.07,0h.05l.06,0,0,0h.1l.05,0h0l.09,0h0l.05,0h0l.05,0h0l.06,0,.07,0h0l0,0h.05l.05,0h0l.09,0h.09l0,0h.05l0,0h.06l.13,0h0l0,0h0l.05,0h0l.1,0h0l.06,0h.12l.21.06h0l.06,0h0l.07,0h0l.14,0h0l.07,0h0l.07,0h0l.14,0h0l.05,0h.13l.06,0h0l.13,0h0l.06,0h.12l.12,0h0l.06,0h.09l0,0,.19,0h0l.06,0h.09l0,0,.07,0h.06l0,0h.1l0,0h0l.09,0,0,0h.1l.05,0h0l.08,0h0l.07,0h0l.05,0h0l.07,0h0l.09,0h0l.07,0h0l.07,0h0l.09,0h0l.09,0h0l.07,0h0l.19.06h0l.09,0h0l.31.08h0l2.44.65,1.26-4.84c-4.39-1.15-8.81-2.45-13.12-3.87Zm21.67,5.91L173.12,435c1.15.25,2.31.5,3.46.73h0l.32.06H177l.22.05h.21l.2,0h.24l.08,0h.71l.1,0H179l.09,0h0l.1,0h.13l.08,0h0l.2,0h0l.08,0h0l.1,0h0l.11,0h0l.09,0h.12l.21,0h.11l.32,0h0l.11,0h0l.32.06h0l.43.08h0l.42.07h0l.32.06h0l.1,0h0l.32.05h0l.32.06h.12l.31.05h0l.1,0h0l.21,0h0l.1,0h0l.09,0h0l.21,0h.12l.1,0h0l.11,0h.22l.21,0h.23l.1,0h1.1l.17,0h0l.08,0h.06l.75-4.94c-4.5-.68-9-1.51-13.46-2.47Zm22.18,3.61-.55,5c3.89.42,7.81.75,11.76,1h0l.44,0h1.38l.38,0,.23-5c-4.55-.21-9.14-.56-13.64-1Zm36.12.92c-4.13.24-8.33.36-12.48.36h-1.21l0,5h4.78q3.06,0,6.1-.18h1.13l2-.1-.29-5Zm22.33-2.44c-4.47.73-9,1.32-13.56,1.76l.49,5H242l.21,0h.22l.21,0h.13l.31,0h.12l.32,0h.12l.32,0h0l.32,0h.11l.33,0h.11l.32,0h.11l.32,0h.12l.32,0h.11l.22,0h.22l.21,0h.12l.1,0h0l.22,0h0l.09,0h0l.32,0h.12l.21,0h.22l.21,0h.23l.1,0h2.76l.23,0h.18l.25,0h.1l.33-.05h0l.09,0h0c1-.14,2-.3,3-.46l-.81-4.93Zm22-4.77c-4.38,1.19-8.86,2.26-13.31,3.18l1,4.89,2.21-.46h0l.08,0h0l.24,0h.18l.23-.05h.19l.13,0h.13l.06,0h0l.11,0h0l.06,0h.24l.07,0h.3l.09,0h0l.06,0h.14l.08,0h0l.08,0h.13l.08,0h0l.1,0h0l.08,0h.12l.2,0h0l.07,0h0l.08,0h0l.1,0h0l.08,0h0l.08,0h0l.2-.05h0l.08,0h0l.08,0h0l.1,0h0l.09,0h.13l.08,0h0l.09,0h0l.07,0h.13l.1,0h0l.09,0h0l.07,0h0l.08,0h0l.1,0h0l.08,0h0l.08,0h0l.1,0h0l.08,0h.13l.07,0h0l.09,0h.13l.06,0h.11l.05,0h.11l0,0h.14l.08,0,.06,0H274l.13,0h.11l.07,0h0l.24-.06h0l.08,0h0l3.43-.91-1.31-4.82Zm21.32-7.05c-4.23,1.65-8.56,3.18-12.89,4.56l1.51,4.76,1.93-.62h0l.23-.08h0l.07,0h0l.07,0h0l.13,0h0l.06,0,0,0h.05l0,0h.05l.06,0,.07,0h0l.05,0h0l0,0,.07,0,.05,0,.06,0h0l.06,0h0l.06,0h0l.09,0h0l.07,0h0l.07,0h0l.1,0h0l.09,0h0l.07,0h0l.2-.06h0l.07,0h0l.09,0h0l.1,0h0l.07,0h0l.07,0h0l.09,0h0l.08,0h0l.07,0h0l.19-.07h0l.06,0h0l.07,0h0l.09,0h0l.07,0h0l.06,0h0l.08,0h0l.07,0,0,0,.05,0h0l.06,0,.06,0,.06,0,0,0,.05,0h.05l0,0,.19-.06h0l.06,0h0l.21-.07h0l.06,0h0l.07,0h0l.24-.08h0q2.91-1,5.77-2.15l-1.82-4.66Zm20.48-9.25c-4,2.08-8.19,4.06-12.35,5.89l2,4.58.5-.22h0l.09,0h0l.08,0h0l.09-.05h0l.06,0h0l.07,0h0l.08,0h0l.05,0,0,0,.05,0,0,0,0,0,.09,0h0l.05,0h0l.06,0h0l.14-.06h0l.06,0h0l.07,0h0l.22-.1h0c1.19-.54,2.37-1.08,3.56-1.64h0l.22-.11h0l.06,0h0l.21-.1h0l.06,0h0l.06,0h0l.11-.05,0,0,.05,0,0,0,.05,0,0,0,.05,0,.07,0,0,0,.05,0,0,0,.06,0h0l.08-.05h0l.06,0h0l.07,0h0l.18-.08,0,0,.08,0h0l.18-.09h0l.09-.05h0q2.35-1.16,4.68-2.35l-2.29-4.44ZM338,399.78c-3.8,2.5-7.72,4.9-11.67,7.15l2.48,4.34q3.54-2,7-4.16h0L336,407h0l.05,0,0,0,.05,0,0,0,.08-.05,0,0,0,0,.05,0,0,0,.05,0,0,0,.08-.05,0,0,.05,0,0,0,.07,0h0l.09-.06h0l.07,0h0l.08-.05h0l.18-.11h0Q339,405.1,340.7,404L338,399.78Zm18.1-13.3c-3.51,2.87-7.17,5.67-10.85,8.32l2.91,4.06c3.79-2.72,7.51-5.56,11.11-8.51l-3.17-3.87Zm16.63-15.12c-3.2,3.23-6.54,6.39-9.93,9.41l3.32,3.74.12-.11h0l.05-.05h0l.11-.1h0l0,0,0,0,.05,0,0,0,.07-.06,0,0,0,0,0,0,0,0,0,0,0,0,.07-.07,0,0,0,0,0,0,.05,0,0,0,.07-.07h0l.06-.06h0l.06-.06h0l.08-.07h0l.07-.06h0l.07-.06h0l.16-.14h0q1.74-1.57,3.45-3.19h0l.23-.22h0l.23-.22h0l.08-.08h0l.16-.14h0l.06-.07h0l.15-.14h0l.06-.06v0l.15-.13,0,0,.05,0,0,0,.06-.05,0,0,.05-.05,0,0,0,0,0,0,.05,0,0,0,0,0,0,0,0,0,0,0,0,0,.08-.08h0l0-.05h0l0-.05h0l.16-.16h0l.05-.05h0q1.44-1.4,2.85-2.82l-3.55-3.52Zm15-16.76c-2.84,3.54-5.84,7-8.9,10.39l3.69,3.37h0l.07-.07,0,0,0,0,0,0,0,0,0,0,0,0,.06-.06,0,0,0,0,0,0,0-.05h0l.16-.18h0l.22-.23h0q1.8-2,3.55-4h0l.21-.24h0l.05-.06h0l.1-.13h0l.05-.05,0,0,0,0v0l.08-.09,0,0,0,0,0,0,0,0,0,0,0,0,.06-.06,0,0,0,0,0,0,0-.05,0,0,.06-.08,0,0,.05-.05,0,0,.05-.06h0l.07-.08h0l.06-.07h0l.06-.07h0l.14-.16h0c1.08-1.28,2.15-2.58,3.2-3.88l-3.9-3.14Zm13.15-18.22c-2.46,3.82-5.08,7.6-7.78,11.26l4,3,.84-1.14h0l.13-.17h0l.06-.07v0l.06-.07h0l.06-.08v0l0-.07v0l.05-.06,0,0,0-.08h0l0-.07,0,0,0-.07,0,0,.06-.08h0l0-.07,0,0,0-.06,0,0,.06-.08v0l0-.06,0,0,0-.06v0L399,348h0l.05-.07,0,0,0-.05,0,0,0-.07,0,0,.05-.07,0,0,0-.06,0,0,0-.06,0,0,.05-.08,0,0,0-.06,0,0,0-.07v0l.06-.07,0,0,0-.06,0,0,0-.07h0l.06-.08v0l.05-.06,0,0,0-.06v0l.06-.08v0l.05-.06,0,0,0-.06v0l.06-.08v0l.05-.06v0l.05-.06v0l.06-.08h0l.06-.08h0l.05-.08h0l.12-.17h0l.05-.08h0l.12-.17h0l.06-.08h0l.12-.18h0l.06-.09h0c1.35-1.95,2.66-3.92,3.95-5.92l-4.2-2.71ZM412,316.89c-2.05,4.05-4.25,8.09-6.56,12l4.31,2.53c.14-.23.28-.46.41-.7h0l.12-.21h0l0-.06v0l0-.06h0l.07-.13h0l0-.05,0,0,0-.05v0l.07-.12h0l0-.05,0,0,0,0,0,0,0,0,0-.07,0,0,0-.05,0,0,0-.06,0,0,.05-.08v0l0-.07v0l0-.05v0l.05-.08h0l0-.07,0,0,0-.06,0,0,.09-.17,0,0,0-.07v0l.1-.18h0l0-.08v0l.1-.18h0l.05-.09h0l.16-.28h0l.05-.09h0l.11-.19h0q2.22-3.94,4.27-8h0l.09-.19h0l0-.09h0L412,316.89Zm9.07-20.55c-1.61,4.24-3.38,8.49-5.26,12.63l4.55,2.07q1.19-2.61,2.3-5.25h0l0-.07h0l.09-.22v0l0-.06v0l.05-.11v0l0-.05v0l0-.05,0-.05,0,0,0-.08,0,0,0,0,0,0,0-.06,0,0,0-.09h0l0-.08v0l0-.07v0l.08-.19h0l0-.09h0l.12-.3h0q.81-2,1.59-4h0l0-.09h0l.08-.2h0l0-.08v0l0-.09h0l0-.09v0l0-.07v0l0-.06v0l0-.08,0-.05v0l0-.05,0,0,.11-.29h0c.05-.11.09-.24.14-.35l-4.68-1.78ZM427.91,275c-1.15,4.39-2.47,8.8-3.9,13.11l4.74,1.58q1.83-5.47,3.37-11.08h0l0-.09h0l.06-.2v0l0-.06v0l0-.06V278l0-.07,0-.06v-.12c.14-.51.28-1,.41-1.53L427.91,275Zm4.58-22c-.69,4.49-1.53,9-2.51,13.44l4.88,1.08c0-.14.07-.28.1-.42h0l.06-.31v0l0-.08v0l0-.09h0l0-.1v-.27l0-.11v0l0-.06v-.12l0-.23h0l0-.07h0c.51-2.46,1-4.92,1.42-7.41h0l0-.08h0l0-.24v-.6l0-.08v0l0-.09v-.23l0-.21h0l0-.1h0c.15-.9.29-1.81.43-2.71l-4.94-.76Zm2.25-22.36c-.22,4.54-.59,9.13-1.09,13.64l5,.56q.44-3.92.74-7.87h0c0-.11,0-.22,0-.34h0v-.19l0-.24h0V236l0-.22v-1.59h0v-.43h0v-.11h0v-.43h0v-.43h0v-.43h0v-.2h0v-.55h0v-.43h0v-.22l-5-.24Zm4.93-22.75-5,.27c.21,3.93.32,7.93.32,11.88,0,.6,0,1.21,0,1.81l5,0c0-.29,0-.58,0-.87h0v-.08h0v-.16h0V220h0v-1.25h0v-1.06h0c0-.21,0-.4,0-.61h0V217h0v-.09h0v-.08h0v-.09h0c0-1.62-.07-3.24-.13-4.86h0v-.08h0v-1h0v-.18h0v-.08h0v-.09h0q0-1.28-.12-2.55ZM437.23,185l-4.94.79c.72,4.48,1.3,9,1.73,13.57l5-.47c-.15-1.56-.31-3.11-.49-4.66h0v-.08h0l0-.33v-1l0-.2v-.11h0c0-.11,0-.22,0-.32h0q-.45-3.59-1-7.13Zm-4.82-22.48-4.82,1.3c1.18,4.39,2.24,8.86,3.14,13.32l4.9-1Q434.39,170,432.81,164h0c0-.1-.05-.2-.08-.31h0l0-.08v0l-.05-.2v-.13l0-.06v0l0-.09v0l0-.05v-.09l0-.05v0l-.05-.21h0v0Zm-7.15-21.85-4.66,1.81c1.63,4.23,3.16,8.57,4.52,12.9l4.77-1.5q-1.49-4.68-3.15-9.28h0l-.12-.31h0l0-.07h0l-.08-.22h0l0-.07v0l0-.07h0l-.05-.13v0l0,0,0,0,0-.05v0l0-.09,0,0,0-.05v0l0-.05,0-.05v0l0-.09v0l0-.06v0l0-.07v0l0-.09h0l0-.09v0l0-.07v0l-.08-.2h0l0-.1h0c-.19-.51-.38-1-.58-1.53Zm-9.41-21L411.4,122c2.08,4,4.05,8.2,5.86,12.36l4.58-2q-2.79-6.43-6-12.65ZM404.3,99.81l-4.19,2.74c2.49,3.8,4.88,7.73,7.12,11.68l4.35-2.46c-.07-.13-.14-.26-.22-.38h0l-.1-.18h0l-.05-.08v0l-.05-.08h0l-.05-.08v0l0-.06,0,0,0-.06v0l-.05-.08,0,0,0,0,0,0,0-.05,0,0,0-.07,0,0,0,0,0,0,0,0,0,0,0,0-.05-.1,0,0,0,0,0,0,0-.05h0l-.08-.12v0l0-.06v0l0-.06h0l-.08-.14h0l0-.07v0l0-.06h0l-.12-.21h0l0-.06h0l-.12-.2h0c-.06-.1-.11-.18-.16-.28h0l0-.07h0l-.12-.2h0l0-.07h0l-.12-.2h0l0-.06v0l-.12-.2h0l0-.07h0l-.12-.2h0l0-.06h0l0-.07h0l-.08-.13h0l0-.06v0l0-.06v0l-.07-.12h0l0,0v0l0,0v0l-.07-.1v0l0,0,0,0,0,0,0,0,0-.06,0-.06,0,0,0,0,0,0,0,0,0,0,0-.08,0,0,0,0,0,0,0,0,0,0,0-.07,0,0,0-.06v0l0-.06,0,0-.05-.09h0l-.05-.08v0l0-.06,0,0-.1-.17v0l-.05-.07v0l-.11-.18h0l0-.08h0l-.11-.18h0l-.06-.09h0c-.94-1.51-1.9-3-2.87-4.51ZM390.74,81.25l-3.88,3.15c2.86,3.53,5.66,7.19,8.29,10.88l4.07-2.9q-4.07-5.7-8.48-11.13ZM375.32,64.19l-3.53,3.54c3.22,3.21,6.37,6.56,9.38,10l3.74-3.31h0l-.21-.24h0l-.06-.07h0l-.13-.15,0,0-.05-.06,0,0-.06-.07,0,0-.05,0,0,0,0,0,0,0,0,0-.05-.06,0,0,0,0,0,0,0,0,0,0-.09-.09h0l0-.05,0,0,0,0h0l-.16-.17h0q-3.92-4.35-8.05-8.49h0l-.05-.06h0l-.12-.13Zm-17.1-15.36-3.15,3.89c3.53,2.85,7,5.86,10.36,8.93L368.82,58l-1.05-1h0l-.15-.14h0l-.07-.06,0,0-.06-.05h0l-.07-.07,0,0-.06-.05,0,0,0-.05,0,0-.06-.06,0,0-.05,0,0,0,0,0,0,0-.05,0-.06,0,0,0,0,0,0,0,0,0,0,0-.09-.08,0,0-.05,0,0,0-.05,0h0l-.1-.09,0,0-.05,0v0l-.17-.15h0l-.05,0,0,0-.05,0h0l-.11-.1h0l-.06-.05h0l-.24-.21h0l-.24-.21h0l-.25-.22h0l-.25-.22h0l-.24-.21h0l-.06-.05h0l-.18-.16h0l0-.05h0l-.17-.15h0l0-.05h0l-.16-.14,0,0,0,0,0,0-.16-.14,0,0,0,0,0,0,0,0h0l-.09-.08,0,0,0,0,0,0,0,0-.05-.05,0,0-.05,0,0,0,0,0,0,0-.07-.06,0,0-.06,0,0,0-.05,0,0,0-.07-.07h0l-.07-.06,0,0-.06-.05h0l-.15-.14h0l-.07-.06h0L362,52h0l-.08-.07h0q-1.85-1.56-3.71-3.07ZM339.61,35.32l-2.72,4.2c3.81,2.47,7.59,5.1,11.23,7.81l3-4c-.76-.56-1.52-1.12-2.29-1.67h0l-.08-.06h0l-.17-.12,0,0-.06,0,0,0-.06,0,0,0-.07-.05,0,0,0,0-.05,0,0,0L348,41h0l-.05,0h0q-4.06-2.91-8.27-5.65ZM319.7,23.83l-2.27,4.46c4,2.06,8.08,4.28,12,6.59l2.55-4.3-.51-.3h0l-.07,0h0l-.13-.08h0l-.06,0,0,0,0,0,0,0L331,30l-.07,0,0,0,0,0,0,0-.07,0h0l-.09-.05h0l-.08,0h0l-.08-.05h0l-.18-.1h0c-2.29-1.34-4.62-2.63-7-3.88h0l-.09-.05h0l-.19-.1h0l-.07,0h0l-.09-.05h0l-.06,0,0,0-.05,0,0,0-.06,0-.06,0,0,0-.05,0,0,0-.06,0h0l-.21-.12h0l-2.38-1.23Zm-21-9.34-1.79,4.67c4.24,1.62,8.48,3.41,12.61,5.3l2.09-4.54q-5.4-2.49-11-4.67h0l-.09,0h0l-.1,0h0l-.08,0h0l-.05,0,0,0,0,0-.08,0,0,0L300,15h0l-.06,0h0l-1.19-.46ZM276.82,7.41l-1.29,4.83c4.39,1.17,8.8,2.5,13.1,3.94l1.59-4.73c-2-.68-4.05-1.34-6.09-2h0l-.08,0h0l-.33-.1h0l-.32-.1h0l-.08,0h0l-.31-.1h0l-.31-.09h0l-.07,0h0L282.35,9h0l-.07,0h0l-.32-.09h0l-.07,0h0l-.23-.06h0l-.07,0h0l-.31-.09h0l-.31-.09h0l-.07,0h0l-.23-.07h0l-.07,0h0l-.32-.09h0l-.4-.11h0l-2.92-.8ZM254.33,2.66l-.78,4.94c4.49.71,9,1.56,13.44,2.55l1.09-4.88-2-.43h0l-.08,0h0l-.24-.05h0l-.06,0h0l-.06,0h0l-.19-.05h-.05l-.05,0h0l-.05,0h-.33l-.06,0h0l-.1,0h-.23l-.09,0h0l-.1,0h0l-.08,0h0l-.08,0h0l-.2,0h0l-.08,0h0l-.09,0h0l-.19,0h-.23l-.1,0h0l-.08,0h0l-.07,0h0l-.09,0h0l-.1,0H262l-.08,0h-.29l-.1,0h-.13l-.06,0h0l-.22,0H261l-.07,0h0l-.24,0h-.09c-2.06-.39-4.14-.74-6.22-1.07ZM231.46.29l-.26,5c4.55.23,9.13.61,13.64,1.13l.57-5h-.11l-.32,0h-1.11l-.16,0h-.19l-.33,0h0C240.3.9,237.4.66,234.48.47h0l-.33,0h-2.35l-.33,0ZM220,0V5h2.41l.06-5H220Z"/></svg>