<svg id="Layer_1" data-name="Layer 1" xmlns="http://www.w3.org/2000/svg" viewBox="0 0 500.92 501"><defs><style>.cls-1{fill:#1e59c1;}</style></defs><title>nextPage</title><path class="cls-1" d="M690.5,147h-10l-.59,0h-.12l-.47,0H679l-.58,0h0q-9,.43-17.89,1.49l2.36,19.86A234.37,234.37,0,0,1,690.5,167V147Zm-50.66,5.12-.46.1h0l-.34.07h0l-.1,0h0l-.1,0h0l-.23,0h0l-.11,0h-.14l-.07,0h0l-.09,0h0l-.1,0h-.22l0,0h-.17l-.09,0h-.15l-.06,0h-.14l-.24.05h-.22l-.37.08h0l-.09,0h0l-.56.13h0a247,247,0,0,0-24.74,6.89l6.35,19a228.85,228.85,0,0,1,26.63-7.16l-4-19.6Zm-48.56,15.3-2.31,1h0l-.34.15h0l-.07,0h0l-.07,0h0l-.22.1h0l-.06,0h0l-.06,0h0l-.06,0h0l-.14.06,0,0,0,0-.05,0,0,0-.06,0h0l-.2.09,0,0-.07,0h0l-.07,0h0l-.08,0h0l-.1.05h0l-.08,0h0l-.09,0h0l-.2.1h0l-.1,0h0l-.09,0h0l-.1,0h0l-.21.1h0l-.1.05h0l-.42.2h0l-.1.05h0l-.85.39h0c-2.23,1.05-4.45,2.13-6.64,3.23h0l-.09,0h0l-.31.16s0,0,0,0l-.1.05h0l-.41.21h0l-.41.21h0l-.41.21h0l-.41.21h0l-.1,0h0l-.31.16h0l-.1.05h0l-.1.06h0l-.2.1h0l-.09.05h0l-.09,0h0l-.2.1h0l-.09,0h0l-.09.05h0l-.31.16h0l-.1.05h0l-.31.16h0l-.09,0h0l-.1,0h0l-.2.11h0l-.09,0h0l-.08,0h0l-.3.16h0l-.09,0h0l-.3.17h0l-.09,0h0l-.3.16h0l-.1.06h0c-2.37,1.28-4.71,2.59-7,3.95l10.07,17.27a230.69,230.69,0,0,1,24.62-12.43l-7.93-18.36Zm-44.44,24.84-.76.54h0l-.09.07h0l-.28.2h0l-.08,0h0l-.18.13h0l-.08.06,0,0-.06,0,0,0-.06,0,0,0-.08,0,0,0,0,0,0,0,0,0-.05,0,0,0,0,0,0,0-.1.07,0,0,0,0,0,0-.05,0,0,0a2.83,2.83,0,0,0-.28.2h0l-.07,0h0q-5.76,4.16-11.27,8.63h0l-.29.24h0l-.07.05v0l-.06,0,0,0-.2.16h0l-.06,0,0,0-.06,0v0l-.18.14,0,0,0,0,0,0,0,0-.05,0,0,0-.08.06h0l-.06.06,0,0-.06,0,0,0-.06.06h0l-.17.14,0,0-.06.05,0,0-.07.06h0l-.17.14h0l-.08.07h0l-.08.06h0l-.26.22h0q-3.46,2.9-6.82,5.9l13.35,14.89a233.27,233.27,0,0,1,21.62-17.17l-11.49-16.37Zm-38.51,33.3-.08.08h0l-.08.09h0a2.73,2.73,0,0,1-.23.25h0l-.08.09h0c-.1.12-.21.23-.31.34h0c-.1.12-.21.23-.31.34h0c-.1.11-.21.22-.31.34h0l-.32.34h0l-.32.34h0c-.11.11-.21.22-.31.34h0l-.07.08h0l-.23.25h0c-.1.11-.2.23-.31.34h0l-.31.35h0l-.08.08h0l-.24.26h0l-.07.08h0c-.07.09-.15.17-.23.26h0l-.07.07h0c-.08.09-.16.17-.23.26h0l-.07.08h0l-.07.08h0l-.15.16,0,0-.06.07h0l-.07.08h0l-.07.08h0l-.06.07,0,0-.06.06,0,0-.06.07v0l-.07.08h0l-.06.07,0,0-.06.07,0,0-.06.06v0l-.07.08h0l-.07.08v0l-.06.06,0,0,0,.06,0,0-.07.08h0l-.06.08,0,0-.05.05,0,0,0,.06,0,0-.07.08h0l-.07.08v0l-.06.06,0,0,0,.06,0,0-.07.08h0l-.06.07,0,0,0,.06,0,0,0,0,0,0-.07.08h0l-.06.07,0,0,0,.05,0,0,0,0,0,0-.07.08h0l-.07.07,0,0-.05.05,0,0,0,.05,0,0,0,.06,0,0,0,.05,0,0,0,0,0,.05,0,0,0,0,0,0-.07.08,0,0,0,0,0,0,0,0,0,0,0,0,0,0-.08.09,0,0,0,.05,0,0,0,.05,0,0,0,0,0,0-.09.09,0,0,0,.05,0,0,0,0,0,0-.05.05,0,0-.15.18,0,0,0,0,0,0,0,.06h0l-.16.19,0,0-.05.06,0,0-.05,0v0l-.16.19,0,0,0,0,0,0-.05.07h0l-.18.21h0l-.05.07h0l-.05.06h0l-.23.28h0l-.23.27h0l-.05.07h0l-.06.07h0l-.24.28h0l-.3.35h0l-.06.07h0l-.23.28h0l-.3.36h0l-.06.07h0q-2.68,3.27-5.26,6.63h0L491,246h0L491,246h0l-.22.29h0l0,.06,0,0-.15.21h0l-.05.06v0l-.05.06v0l-.16.2h0l-.05.06,0,0,0,.06,0,0,0,.05v0l-.08.11,0,0,0,0,0,0,0,0,0,.05,0,0,0,.07,0,0,0,.06,0,0,0,.05,0,0,0,.06,0,0-.06.08h0l-.05.08,0,0,0,.06,0,0,0,.05,0,0,0,.07,0,0-.06.08h0l16.07,11.9a232.42,232.42,0,0,1,17.72-21.16l-14.54-13.73Zm-31,40.36q-1.73,2.79-3.37,5.61s0,0,0,0l-.06.09h0c-.06.1-.12.19-.17.29v0l-.05.08h0l-.05.1h0l-.12.2v0l0,.07,0,0,0,.07v0l-.11.19v0l-.05.08v0l0,.08,0,0-.11.19v0l0,.07,0,0,0,.07,0,0-.05.08h0l-.06.1v0l0,.07,0,0,0,.06,0,0,0,.06,0,0-.05.09,0,0,0,.06,0,0,0,.06,0,0,0,.05,0,0,0,.06,0,.07,0,0,0,.05,0,0,0,.05,0,0,0,.05,0,0,0,.09,0,0,0,.05,0,0,0,.05,0,.05,0,.05,0,0-.05.09,0,0,0,.05,0,0,0,.05,0,.05,0,0,0,0-.1.2,0,0,0,.06,0,0,0,.05,0,0,0,.06v0l-.06.12,0,0,0,.06,0,0,0,0,0,0,0,.06v0l-.07.13v0l0,.05,0,0,0,.05,0,0,0,.06,0,0-.07.14h0l0,.06,0,0,0,.06,0,0,0,.06v0l-.08.14h0l0,.06v0l0,.06v0l0,.06v0l-.11.21,0,0,0,.06,0,0,0,.05,0,0,0,.06v0l-.07.12v0l0,.06v0l0,.06v0l0,.07h0l-.08.14v0l0,.06,0,0,0,.07v0l0,.07v0l-.12.21v0l0,.06,0,0,0,.06,0,0-.11.2v0l0,.06,0,0,0,.06,0,0,0,.06v0l-.06.11,0,.05,0,.05,0,0,0,.05,0,.05,0,.05,0,0-.05.08,0,0,0,.06,0,0,0,.05,0,.05,0,0,0,.06,0,.07,0,.05,0,.05,0,.05,0,0,0,.05,0,.05,0,0-.05.11,0,0,0,.05,0,0,0,.05,0,.05,0,.05,0,0,0,.05-.05.09,0,0,0,.05,0,.05,0,.05,0,0,0,.06,0,0,0,.07,0,.06,0,.05,0,0,0,.06,0,0,0,.06v0l-.05.09v0l0,.08,0,0,0,.07,0,0,0,.07,0,0,0,.08v0l-.05.09v0l0,.07v0l0,.07v0l0,.09h0l-.05.1v0l0,.08,0,0,0,.07,0,0,0,.07,0,0-.05.09v0l0,.08v0l0,.07v0l0,.07v0l-.05.1h0l-.05.1v0l0,.08v0l0,.07v0l-.1.19v0l0,.08,0,0,0,.07,0,0-.1.2v0l-.05.08v0l0,.08,0,0,0,.09h0l-.06.1h0l-.05.1h0l-.05.09h0l-.15.31h0l-.05.09v0c-.06.1-.11.2-.16.3h0l0,.09h0l-.15.31h0l0,.09v0l-.05.09h0l-.15.31h0c-.06.14-.13.27-.2.41h0c-.65,1.33-1.29,2.68-1.92,4h0l-.05.1s0,0,0,0l-.05.1,18.15,8.41a230.86,230.86,0,0,1,13.08-24.29l-17-10.52Zm-22.23,45.81a249.05,249.05,0,0,0-8.55,28.73L466,345a229.1,229.1,0,0,1,7.86-26.43l-18.79-6.84Zm-12.44,49.36c0,.16-.05.31-.07.46h0l-.06.46h0v.1h0l0,.11h0c0,.12,0,.23,0,.34h0v.13l0,.08v.14l0,.22h0v.12l0,.09v.14l0,.08v0l0,.21v.48l0,.1V365l0,.1v1.1l0,.23v.45l0,.25v.33c0,.12,0,.25,0,.37v.3h0c0,.13,0,.25,0,.38v.22c0,.12,0,.24,0,.37h0v.29h0c0,.13,0,.25-.05.38h0V370h0c0,.14,0,.25,0,.38h0v.31c0,.11,0,.25,0,.36v.31h0l0,.28h0v.39h0l0,.28h0v.31l0,.37v.31h0l0,.28h0V374h0l0,.38h0v.31c0,.11,0,.25,0,.37v.21h0c0,.16,0,.31,0,.48h0v.09h0v.09h0c0,.13,0,.25,0,.39h0v.31l0,.37v.21h0c0,.14,0,.25,0,.39h0v.09h0v.2h0l0,.37v.31h0l0,.38v.21h0c0,.17,0,.31,0,.48h0v.2h0c0,.14,0,.26,0,.39h0v.09h0v.09h0c0,.17,0,.32,0,.49h0v.09h0v.09h0c0,.13,0,.26,0,.39h0v.1h0v.09h0c-.18,3-.32,6.09-.4,9.15l20,.51a231.28,231.28,0,0,1,2.34-27.5l-19.79-2.89Zm17.75,49.74-20,1.14c.07,1.24.15,2.47.24,3.71h0l0,.4h0v1.2h0v.46h0c0,.11,0,.23,0,.35h0v.11h0q.69,8.28,1.89,16.41h0l.09.57h0l0,.11h0c0,.16,0,.31.07.46h0V436h0l0,.22h0v.35l0,.08v0l0,.21v.37l0,.08v0l0,.1v.4l0,.26h0v.39h0l0,.19h0V439l0,.08h0c0,.16.05.31.08.47h0l0,.09h0l.36,2.11,19.69-3.51a232.16,232.16,0,0,1-3.2-27.4Zm7.39,46.25-19.32,5.16a247.64,247.64,0,0,0,9.46,28.45l18.56-7.45a228.46,228.46,0,0,1-8.7-26.16Zm16.64,43.77-17.87,9q4.38,8.71,9.41,17h0l.24.4h0l.24.38v0l.05.08v0l.06.09h0l.06.1h0l.05.08,0,0,0,.08,0,0,0,.08h0l.06.1h0l.05.08v0l0,.06,0,0,0,.07,0,0,.05.09,0,0,0,.06,0,0,0,.06,0,0,0,0,0,.05,0,0,.06.09,0,0,0,0,0,0,0,0,0,0,0,.06h0l.1.15h0l0,.06v0l0,.06,0,0,0,.06h0l.13.23h0l.05.07h0c.09.13.16.26.25.39h0q1.63,2.6,3.33,5.15l16.67-11a231.53,231.53,0,0,1-13.84-23.86Zm25.18,39.5L493.9,552.76a253.31,253.31,0,0,0,18.64,21h0l.32.33h0l.08.08h0l.16.16h0l.07.07v0l.07.06h0l.16.16,0,0,0,0,0,0,.05.05,0,0,0,.05.05,0,0,0,.05.05,0,0,0,0L528,561a231.62,231.62,0,0,1-18.38-20.6ZM542.23,574,529.36,589.3a250.75,250.75,0,0,0,24,17.9l11-16.73A234.87,234.87,0,0,1,542.23,574ZM581,600.36,571.44,618c2.41,1.31,4.85,2.58,7.3,3.8h0l.33.17h0l.06,0h0l.07,0h0l.22.11h0l.07,0h0l.06,0,0,0,.06,0h0l.11.05.05,0,0,0,0,0,.06,0,0,0,0,0,.05,0,0,0,.08,0,0,0,.05,0,0,0,.06,0,0,0,.06,0,0,0,.09,0h0l.07,0,0,0,.06,0,0,0,.07,0h0l.19.09,0,0,.07,0,0,0,.07,0h0l.09,0h0l.1.05h0l.09,0h0l.08,0h0l.1,0s0,0,0,0l.1,0h0l.1,0h0l.08,0h0l.09,0h0l.21.1h0l.09,0h0l.08,0h0l.2.1h0l.09,0h0l.09.05h0l.21.1h0l.1,0h0l.09,0h0l.09.05h0l.2.1h0l.08,0h0l.1,0h0l.21.1h0l.1.05h0l.1,0h0l.31.14h0l.09,0h0l.1,0h0l.2.09h0l.1,0h0l.1,0h0l.32.15h0l.1,0h0l.31.14h0l.09,0h0l.31.14h0l.09,0h0l.41.19h0l.1,0h0l.32.14h0l.1,0h0l.31.14h0l.09,0h0l.31.14h0l.09,0h0l.1,0h0l.21.1h0l.1,0h0l.1,0h0l.31.13h0l.1,0h0l.31.13h0l.1,0h0l.32.14h0l.1,0h0l.1.05h0l.32.14h0l.1,0h0l.31.13h0l.1,0h0l.09,0h0l.22.09h0l.1,0h0l.1,0h0l.32.14h0l.1,0h0l.86.36h0q2.61,1.1,5.23,2.13L606,612a229.57,229.57,0,0,1-25-11.65Zm43.24,18-5.74,19.16q10.24,3.06,20.84,5.27h0l.45.09h0l.09,0h0l.1,0h0l.22,0h.15l.06,0h.05l.06,0h.12l.07,0h.36l.25,0h0l.07,0h0l.07,0h0q3,.6,6.09,1.13L651,624.64a229.86,229.86,0,0,1-26.84-6.31Zm46,8.79L668.46,647c1.74.16,3.5.29,5.25.41h0l.49,0H675l.38,0h17c2,0,4,0,6-.11l-.62-20c-2.43.07-4.89.11-7.32.11-6.77,0-13.6-.3-20.3-.88Zm74.06-5.42a228.26,228.26,0,0,1-27.16,4.78l2.28,19.87a247.53,247.53,0,0,0,29.53-5.2l-4.65-19.45Zm44.19-15.48a229.68,229.68,0,0,1-25.62,10.21l6.27,19,.28-.09h0l.08,0h0l.36-.11h0l.09,0h0l.34-.11h0l.07,0h0l.07,0h0l.22-.07h0l.06,0,0,0,.06,0h0l.06,0h0l.12,0,0,0,.06,0h0l.06,0,0,0h.06l0,0,.06,0,.07,0,.08,0h0l.06,0,0,0,.06,0h0l.06,0,.05,0,.09,0,.05,0,0,0,.06,0h0l0,0,.06,0h0l.09,0h0l.06,0,0,0,0,0,.06,0h0l.05,0,0,0,.1,0h0l.07,0h0l.07,0,0,0,.06,0h0l.08,0h0l.11,0h0l.08,0h0l.08,0h0l.09,0h0l.1,0h0l.1,0h0l.07,0h0l.08,0h0l.21-.07h0l.08,0h0l.09,0h0l.21-.08h0l.11,0h0l.09,0h0l.1,0h0l.22-.08h0l.1,0h0l.43-.16h0l.11,0h0q6.28-2.29,12.42-4.91h0l.11,0h0l.21-.09h0l.1,0h0l.09,0h0l.3-.13h0l.08,0h0l.08,0h0l.2-.08,0,0,.07,0h0l.06,0,0,0,.07,0h0l.09,0h0l.07,0,0,0,.06,0h0l.06,0,0,0,.08,0,.06,0,0,0,0,0,0,0,.06,0,0,0,.06,0h0l.21-.1h0l.07,0h0l.07,0h0l.33-.15h0l.08,0h0c1.62-.72,3.23-1.45,4.83-2.21l-8.5-18.1Zm40.14-24.14a234.24,234.24,0,0,1-23,15.2l10,17.32q10.22-5.9,19.79-12.7h0l.06,0,0,0,0,0,0,0,.19-.13,0,0,0,0,0,0,0,0,0,0,0,0,.07-.05,0,0,.06,0,0,0,.06-.05,0,0,.07,0h0l.19-.13h0l.08-.06h0q2-1.44,4-2.91l-12-16Zm34.47-31.76a231.85,231.85,0,0,1-19.5,19.53l13.28,14.95c1.11-1,2.21-2,3.31-3h0l.25-.23h0l.08-.07h0l.25-.23h0l.06-.06,0,0,.06-.06,0,0L861,581h0l.08-.07h0l.07-.06,0,0,.06-.05,0,0,.08-.07h0l.07-.07,0,0,0-.05,0,0,0,0,0,0,0-.05.05,0,0,0,0,0,0,0,0,0,0,0,0,0,0,0,.08-.07,0,0,0,0,0,0,.05,0,0,0,0,0,0,0,.12-.1h0l0,0,0,0,.05-.05,0,0,0,0h0l.11-.11,0,0,.05-.05h0l0,0,0,0,.06-.06h0l.13-.12h0l0,0,0,0,0-.05,0,0,.05,0h0l.19-.18h0l.06,0v0l.26-.24h0l.06-.06h0q7.34-7,14.09-14.66l-15-13.26Zm27.38-38a231.29,231.29,0,0,1-15.17,23.05l16,12a251.21,251.21,0,0,0,15.81-23.89h0l0-.07v0l.18-.3v0l0-.06,0,0,0,0,0,0,0-.07,0-.06,0,0,0,0,0,0,0-.06,0,0,0-.08h0l.06-.1h0l-17.33-10Zm19.09-42.75a230.35,230.35,0,0,1-10.17,25.63l18.11,8.48a248.57,248.57,0,0,0,11.06-27.87l-19-6.24Zm10-45.75A230.35,230.35,0,0,1,914.78,451l19.45,4.62q.91-3.84,1.71-7.72h0l0-.11h0c0-.11,0-.22.07-.33h0l0-.1v0l0-.1h0c0-.11,0-.22.07-.33v0l0-.09v0l0-.08v-.14l0-.1v0l0-.09v-.36l0-.21v-.37l0-.07v-.54l0-.16h0l0-.08v-.33l.05-.25v-.21h0l.09-.48h0l0-.09h0q1.54-8.43,2.53-17.06l-19.87-2.25ZM940,375.12l-19.92,1.76c.6,6.81.91,13.75.91,20.62,0,2.32,0,4.68-.1,7l20,.59c0-.11,0-.23,0-.35h0v-.88c0-1.3.06-2.61.07-3.91v-.11h0v-4.94h0v-.7h0c0-.1,0-.2,0-.3h0v-.09h0v-.19h0v-.09h0v-.3h0v-.1h0c0-.21,0-.4,0-.6h0v-.09h0v-.09h0c-.12-5.75-.44-11.47-.94-17.12Zm-9.62-50-19.15,5.77a229.33,229.33,0,0,1,6.34,26.83l19.71-3.43q-.66-3.78-1.43-7.53h0l-.09-.46h0l0-.11h0l0-.11h0l-.05-.23h0l0-.09v0l0-.08v0l0-.09v0l-.05-.21v-.21l0-.06v-.1l0-.1v-.21l0-.05v-.16l-.05-.22v0l0-.07v-.21h0l0-.27h0l0-.08v0l0-.08h0q-2-9.27-4.75-18.26Zm-19.6-47-17.58,9.54a229.49,229.49,0,0,1,11.68,25l18.6-7.36q-1.26-3.18-2.6-6.31h0l0-.09h0l-.09-.21h0l0-.11h0l0-.09v0l0-.08v0l-.05-.1h0l0-.09v0l0-.08,0,0,0-.07v0l-.09-.2v0l0-.07,0,0,0-.06,0,0,0-.08v0l-.05-.1v0l0-.07,0,0,0-.06,0-.05,0-.06v0l0-.1,0,0,0-.05,0-.05,0-.05,0,0,0-.05,0-.05,0-.06,0-.08,0-.05,0-.05,0,0,0-.06,0,0,0-.05v0l-.06-.13v0l0-.05,0,0,0-.06v0l0-.06v0l-.1-.22v0l0-.07v0l0-.06v0l-.11-.24h0l0-.08h0l0-.07v0c0-.1-.09-.21-.14-.31v0l0-.07v0l0-.07v0l-.11-.23v0l0-.07v0l0-.07v0l-.11-.24h0l0-.07v0l0-.07v0l-.14-.32v0l0-.07v0l0-.08h0l-.11-.25h0l0-.07v0l0-.08h0l-.12-.26h0l0-.08h0l0-.08h0c0-.11-.1-.21-.15-.33h0l0-.08h0l-.2-.43h0c-.06-.11-.11-.22-.16-.33h0l0-.08h0l0-.09h0l-.15-.33v0l0-.07v0l-.16-.32h0l0-.08h0l0-.08h0l-.12-.25h0l0-.07v0l0-.06,0,0-.11-.23h0l0-.07,0,0,0-.06v0l-.11-.23v0l0-.06v0l0-.06,0,0,0-.07h0l-.11-.23v0l0-.07v0l0-.07v0l-.11-.22v0l0-.06v0l0-.06,0,0,0-.07h0l-.07-.15,0,0,0-.07v0l0-.06,0,0,0-.06v0l-.06-.12v0l0-.05,0,0,0-.06,0,0,0-.05,0,0-.06-.12v0l0,0,0-.05,0-.05,0-.05,0,0,0-.05,0-.05,0-.05-.05-.08,0-.05,0-.05,0,0,0-.06,0,0,0-.05,0-.05,0-.08,0-.05,0,0,0-.05,0-.05,0,0,0,0,0-.05,0-.08,0,0,0-.05,0-.05,0,0,0,0,0-.05,0,0,0-.06,0-.08,0-.05,0-.05,0,0,0-.05,0-.05,0-.06,0,0,0-.1h0l0-.08,0,0,0-.07,0,0,0-.06v0l0-.09h0l-.05-.09v0l0-.08,0,0,0-.07v0l0-.09h0l0-.1h0l-.05-.09v0l0-.07v0l-.05-.09h0l-.1-.2v0l-.05-.08v0l0-.08v0l-.1-.19v0l0-.08v0l0-.09h0l-.11-.2h0l0-.09v0l0-.08v0l0-.09h0l-.11-.2h0l0-.08v0l0-.1h0l-.11-.2h0l0-.09h0l-.22-.41h0l0-.1s0,0,0,0l-.17-.3h0l0-.09h0l-.93-1.74Zm-28.72-42L866.79,249a232.24,232.24,0,0,1,16.5,22.12l16.71-11q-2.57-3.92-5.29-7.74h0l-.06-.09h0l-.2-.28h0l-.07-.09h0l-.13-.19h0l-.06-.09,0,0,0-.07v0l-.14-.18h0l-.06-.08v0l0-.07,0,0,0-.08h0l-.07-.09v0l0-.06,0,0,0-.05,0,0,0-.06,0,0-.06-.09,0,0,0-.06,0,0,0,0,0,0,0-.06,0,0-.06-.09,0,0,0-.06,0,0,0,0,0,0,0,0,0,0-.06-.08,0,0,0-.05,0,0,0,0,0-.05,0,0,0-.05,0,0-.07-.09,0,0,0-.06,0,0,0-.05,0,0,0-.05,0,0-.08-.1,0,0,0-.06,0,0,0,0,0,0,0-.05,0,0-.08-.11,0,0,0,0,0,0,0-.06,0,0,0-.05,0,0-.08-.11,0,0,0-.05,0,0,0,0,0,0,0-.05,0,0-.09-.13h0l0-.06,0,0,0,0,0,0,0-.05,0,0-.08-.1v0l0-.06,0,0,0,0,0,0,0-.05v0l-.14-.19,0,0,0,0,0,0-.05-.06v0l-.1-.13h0l0-.06,0,0,0-.06,0,0,0-.05,0,0-.14-.18,0,0,0,0,0,0,0-.05,0,0-.14-.19v0l0,0,0,0,0-.05,0,0,0-.05v0l-.08-.1,0,0,0,0,0,0,0-.05,0,0,0,0-.06-.08,0,0,0,0,0,0,0,0,0,0,0,0,0,0,0,0-.07-.09,0,0,0-.05,0,0,0,0,0,0,0,0-.07-.08,0,0,0-.06,0,0,0-.06,0,0-.05-.06,0,0-.07-.09h0l0-.08h0l-.05-.07,0,0,0-.06,0,0-.13-.18h0l0-.07,0,0-.05-.08h0l-.14-.18h0l-.06-.09h0q-2.82-3.58-5.76-7.08Zm-36.58-35.4-12.39,15.7a234.55,234.55,0,0,1,20.62,18.35l14.16-14.12a253.49,253.49,0,0,0-22.39-19.93Zm-43-27.31-9,17.88a230.52,230.52,0,0,1,23.88,13.81l11-16.68c-.93-.62-1.85-1.22-2.79-1.82h0l-.07,0h0l-.3-.19h0l-.06,0,0,0-.06,0h0l-.11-.07,0,0-.05,0,0,0,0,0-.05,0,0,0-.06,0h0l-.09-.06,0,0-.07,0,0,0-.07,0h0l-.19-.12h0l-.09-.05h0l-.09-.05h0l-.29-.19h0l-.1-.06h0q-10.2-6.41-21-11.84Zm-47.62-18-5.13,19.33A229.21,229.21,0,0,1,776,183.35l7.42-18.57q-6.12-2.44-12.38-4.57h0l-.11,0h0l-.33-.11h0l-.1,0h0l-.09,0h0l-.1,0h0l-.11,0h0l-.1,0h0l-.07,0h0l-.07,0h0l-.1,0h0l-.09,0h0l0,0-.05,0-.06,0h-.05l0,0-.06,0-.06,0-.08,0,0,0-.06,0h0l-.06,0,0,0-.06,0h0l-.14,0h0l-.07,0h0l-.07,0h0l-.07,0h0l-.24-.08h0l-.07,0h0l-.07,0h0l-.44-.14h0l-.54-.18h0q-5.9-1.89-11.92-3.48Zm-50.28-8-1.11,20a232.53,232.53,0,0,1,27.41,3.17l3.48-19.7h-.23l-.11,0h-.46l-.22,0H733l-.34-.06h0l-.1,0h0l-.11,0h0q-11.75-2-23.83-2.85h-.12l-.35,0h-1.58l-2-.12Z" transform="translate(-440.08 -147)"/></svg>